# xmcd
#
# Track frame offsets:
#	150
#	17700
#	37350
#	53925
#	69225
#	84225
#	102300
#	117300
#	136875
#	154200
#	172050
#
# Disc length: 2541 seconds
#
# Revision: 1
# Processed by: cddbd v1.5.2PL0 Copyright (c) Steve Scherf et al.
# Submitted via: audiograbber 1.83.01
#
DISCID=9409eb0b
DTITLE=Van Zant  - My Kind Of Country
DYEAR=2007
DGENRE=Country
TTITLE0=Train
TTITLE1=These Colors Don't Run
TTITLE2=Goes Down Easy (Album Version)
TTITLE3=That Scares Me
TTITLE4=My Kind Of Country
TTITLE5=The Hardest Thing
TTITLE6=It's Only Money
TTITLE7=We Can't Do It Alone
TTITLE8=Friend
TTITLE9=It's All About You
TTITLE10=Headed South
EXTD=
EXTT0=
EXTT1=
EXTT2=
EXTT3=
EXTT4=
EXTT5=
EXTT6=
EXTT7=
EXTT8=
EXTT9=
EXTT10=
PLAYORDER=
